<?xml version="1.0" encoding="UTF-8"?>
<!DOCTYPE svg PUBLIC "-//W3C//DTD SVG 1.1//EN" "http://www.w3.org/Graphics/SVG/1.1/DTD/svg11.dtd">
<svg version="1.1" xmlns="http://www.w3.org/2000/svg" xmlns:xlink="http://www.w3.org/1999/xlink" x="0" y="0" width="288" height="288" viewBox="0, 0, 144, 144">
  <g id="translate">
    <g>
      <path d="M122.078,42.843 C122.078,37.314 117.591,32.827 112.062,32.827 L31.938,32.827 C26.409,32.827 21.922,37.314 21.922,42.843 L21.922,102.937 C21.922,108.465 26.409,112.952 31.938,112.952 L112.062,112.952 C117.591,112.952 122.078,108.465 122.078,102.937 L122.078,42.843 z M112.062,102.937 L31.938,102.937 L31.938,42.843 L112.078,42.843 L112.062,102.937 z" fill="#444444"/>
      <path d="M63.958,56.136 Q65.042,55.989 66.653,55.901 L66.653,89.563 L80.13,89.563 Q80.159,90.208 80.276,91.995 L63.724,91.995 L63.782,91.351 Q64.075,88.128 64.31,82.444 Q64.368,81.097 64.412,79.749 Q64.456,78.401 64.485,77.083 Q64.544,75.149 64.544,73.479 L64.397,64.134 Q64.31,58.245 63.958,56.136 z" fill="#444444"/>
      <path d="M80.306,55.022 Q87.015,55.784 91.79,57.044 L90.706,52.005 L53.294,52.005 L52.21,57.044 L52.972,56.868 Q58.069,55.696 63.079,55.096 Q68.089,54.495 73.069,54.437 L73.069,55.638 L72.542,55.638 Q71.077,55.638 68.44,55.813 L67.913,55.843 L67.913,57.249 L73.069,57.249 L73.069,58.479 L67.884,58.479 L67.884,60.091 L73.069,60.091 L73.069,61.292 L67.884,61.292 L67.884,62.903 L73.069,62.903 L73.069,64.134 L67.884,64.134 L67.884,65.745 L73.069,65.745 L73.069,66.946 L67.884,66.946 L67.884,68.558 L73.069,68.558 L73.069,69.788 L67.884,69.788 L67.884,71.399 L73.069,71.399 L73.069,72.601 L67.884,72.601 L67.884,74.212 L73.069,74.212 L73.069,75.442 L67.884,75.442 L67.884,77.054 L73.069,77.054 L73.069,78.255 L67.884,78.255 L67.884,79.866 L73.069,79.866 L73.069,81.097 L67.884,81.097 L67.884,82.708 L73.069,82.708 L73.069,83.909 L67.884,83.909 L67.884,85.521 L73.069,85.521 L73.069,86.751 L67.884,86.751 L67.884,88.362 L80.042,88.362 L79.954,87.308 Q79.485,80.628 79.485,72.249 Q79.485,63.87 80.013,55.198 L80.013,54.993 z" fill="#DA2C41"/>
    </g>
  </g>
</svg>
